<?xml version="1.0" standalone="no"?>
<!DOCTYPE svg PUBLIC "-//W3C//DTD SVG 20010904//EN"
 "http://www.w3.org/TR/2001/REC-SVG-20010904/DTD/svg10.dtd">
<svg version="1.0" xmlns="http://www.w3.org/2000/svg"
 width="434.000000pt" height="419.000000pt" viewBox="0 0 434.000000 419.000000"
 preserveAspectRatio="xMidYMid meet">

<g transform="translate(0.000000,419.000000) scale(0.100000,-0.100000)"
fill="#000000" stroke="none">
<path d="M0 2095 l0 -2095 2170 0 2170 0 0 2095 0 2095 -2170 0 -2170 0 0
-2095z m2257 1077 c23 -59 45 -114 48 -123 5 -13 -1 -18 -25 -21 -28 -4 -33
-1 -42 24 -9 26 -14 29 -47 26 -30 -2 -37 -7 -40 -28 -1 -14 -8 -28 -15 -32
-15 -10 -56 -10 -56 0 0 4 11 54 25 112 14 58 27 115 30 128 4 18 12 22 43 22
l37 0 42 -108z m-287 46 c12 -22 12 -32 3 -47 -10 -16 -8 -20 13 -30 13 -6 29
-22 36 -36 23 -50 -16 -89 -118 -120 -40 -12 -45 -11 -53 3 -14 27 -73 224
-68 228 12 13 97 32 132 31 32 -2 42 -7 55 -29z m511 22 c68 -13 93 -37 92
-87 -1 -27 -8 -44 -27 -60 l-26 -22 20 -46 c25 -57 25 -55 -2 -55 -35 0 -50
14 -67 61 -22 58 -37 60 -45 4 -6 -35 -11 -45 -26 -45 -45 0 -47 6 -34 88 6
42 15 98 18 125 8 53 9 53 97 37z m293 -109 c90 -41 109 -89 50 -128 -18 -11
-22 -19 -15 -26 21 -21 12 -65 -16 -87 -31 -24 -56 -23 -139 11 l-51 20 42
102 c23 56 44 110 48 120 8 22 6 22 81 -12z m-1189 -46 c17 -16 25 -35 25 -60
0 -32 4 -37 45 -57 25 -12 45 -25 45 -30 0 -4 -11 -15 -24 -23 -23 -15 -27
-15 -66 5 -60 31 -79 20 -45 -24 28 -36 27 -49 -5 -66 -15 -8 -26 1 -72 63
-30 39 -64 86 -76 104 l-22 32 47 33 c81 57 111 61 148 23z m1470 -136 c56
-42 62 -54 33 -72 -11 -8 -24 -3 -50 17 -32 24 -37 25 -49 10 -11 -14 -9 -20
21 -44 30 -24 32 -30 21 -44 -17 -21 -30 -20 -61 4 -18 13 -28 16 -37 8 -22
-18 -15 -34 28 -63 40 -28 40 -29 20 -48 -19 -20 -20 -20 -86 27 -60 43 -65
50 -53 67 111 158 135 188 146 184 6 -2 37 -23 67 -46z m-1677 -94 c64 -63 69
-95 21 -150 -26 -29 -38 -35 -73 -35 -35 0 -52 9 -119 61 l-78 61 22 24 c19
20 25 22 38 11 122 -103 145 -114 171 -82 20 24 4 48 -70 105 l-70 54 22 23
21 22 31 -22 c17 -12 55 -45 84 -72z m1860 -103 c46 -55 59 -91 43 -121 -15
-27 -67 -54 -90 -46 -14 4 -21 -6 -35 -51 l-18 -57 -26 26 c-25 26 -25 26 -9
69 29 75 16 90 -35 41 -27 -26 -28 -26 -48 -8 -11 10 -20 21 -20 26 0 9 180
169 190 169 5 0 26 -22 48 -48z m-876 -6 c31 -13 74 -36 95 -52 21 -16 59 -40
85 -53 75 -38 134 -118 170 -232 18 -61 23 -97 23 -204 0 -82 -5 -148 -14
-180 -30 -108 -104 -220 -139 -213 -17 3 -48 43 -56 73 -5 19 -2 21 28 17 27
-3 37 1 55 23 39 51 20 176 -32 205 -24 13 -28 13 -51 -9 -14 -13 -31 -42 -39
-65 -8 -23 -20 -41 -28 -41 -19 0 -38 59 -38 120 -1 77 -19 126 -60 164 -97
92 -146 94 -299 15 -134 -69 -188 -78 -291 -44 -152 49 -208 145 -166 287 19
65 96 170 130 179 36 9 41 0 16 -32 -11 -15 -21 -30 -21 -35 0 -13 52 -37 105
-49 63 -14 136 7 234 67 139 87 197 98 293 59z m-1229 -100 c102 -37 133 -139
63 -205 -52 -49 -169 -29 -211 36 -36 54 -10 143 48 168 40 18 52 18 100 1z
m2270 -167 c20 -22 27 -39 27 -69 0 -22 -4 -40 -9 -40 -22 0 -41 13 -41 29 0
24 -29 63 -42 55 -6 -4 -8 -27 -4 -59 8 -69 -17 -105 -73 -105 -52 0 -91 42
-98 104 -6 46 -6 46 26 46 28 0 31 -3 31 -33 0 -35 15 -57 38 -57 12 0 14 10
9 48 -7 56 7 91 43 109 32 16 59 8 93 -28z m-2433 -133 c47 -36 81 -55 109
-60 37 -6 41 -9 41 -36 0 -33 -12 -37 -65 -21 -21 5 -53 2 -105 -10 -104 -25
-107 -25 -102 10 4 30 29 41 88 41 36 0 29 15 -19 45 -37 24 -43 32 -39 56 2
16 9 29 14 29 5 0 40 -24 78 -54z m1286 -182 c46 -22 38 -39 -17 -36 -30 2
-62 -5 -102 -22 -70 -31 -112 -33 -127 -7 -14 28 -14 49 2 33 8 -8 17 -7 37 7
60 42 149 53 207 25z m-318 -37 c26 -2 30 -38 6 -58 -12 -10 -24 -10 -64 0
-35 9 -54 10 -69 2 -26 -14 -31 -14 -31 3 0 7 11 25 25 41 23 24 31 26 68 21
23 -4 52 -8 65 -9z m-1031 -336 c6 -84 19 -188 29 -230 16 -71 18 -74 27 -48
6 19 6 37 -1 51 -7 17 0 50 38 156 40 115 50 135 66 132 10 -2 26 -11 34 -19
12 -12 12 -14 1 -8 -11 6 -13 4 -8 -9 5 -11 3 -15 -5 -10 -7 5 -9 0 -6 -14 4
-14 2 -20 -4 -16 -6 4 -8 -2 -3 -16 5 -16 4 -20 -5 -15 -9 5 -10 1 -5 -15 5
-17 4 -21 -6 -15 -9 6 -11 3 -6 -8 4 -10 2 -17 -4 -17 -6 0 -8 -7 -5 -16 4 -9
2 -13 -5 -8 -8 4 -9 -1 -4 -16 5 -16 4 -20 -5 -15 -9 5 -10 1 -5 -15 5 -16 4
-20 -5 -15 -9 5 -10 1 -5 -14 3 -12 3 -21 -2 -20 -19 3 -27 -2 -15 -10 10 -6
9 -19 -8 -65 -17 -45 -20 -68 -15 -108 7 -48 6 -51 -13 -46 -23 6 -32 -8 -32
-48 0 -14 -4 -22 -10 -19 -14 8 -12 35 3 65 11 22 9 36 -15 105 -34 100 -57
228 -65 367 -6 113 2 142 36 136 13 -3 18 -30 28 -157z m2454 123 c43 -41 55
-96 34 -151 -16 -42 -16 -47 0 -83 20 -44 10 -77 -11 -39 -7 13 -13 32 -14 41
0 10 -21 41 -46 69 -40 45 -45 56 -40 83 4 17 16 39 29 49 22 17 22 17 3 32
-11 8 -28 15 -37 15 -10 0 -21 5 -25 12 -15 24 77 0 107 -28z m-871 -26 c76
-133 97 -288 51 -378 -35 -68 -123 -180 -183 -231 -152 -131 -271 -158 -401
-93 -65 33 -97 66 -97 100 0 33 26 64 52 64 16 0 17 -3 7 -21 -15 -28 3 -49
29 -33 52 33 53 119 3 182 -40 49 -60 114 -68 217 -8 110 7 140 74 149 144 21
161 20 199 -9 48 -37 87 -121 88 -191 0 -48 3 -54 22 -54 57 0 98 69 139 231
15 57 29 107 31 111 11 17 25 6 54 -44z m1065 -31 c23 -33 18 -64 -18 -104
-19 -21 -46 -64 -60 -96 -24 -52 -25 -61 -12 -80 17 -27 56 -277 46 -295 -11
-19 -85 230 -77 259 12 49 -23 -36 -61 -148 -21 -62 -41 -113 -45 -113 -12 0
-10 15 17 160 26 141 44 181 74 157 14 -10 14 -10 3 5 -9 11 -10 18 -2 23 6 3
20 25 31 47 20 39 20 42 4 87 -10 25 -22 50 -26 56 -13 14 -11 25 6 25 7 0 18
6 22 13 23 38 73 40 98 4z m-2098 -809 c33 -40 35 -58 6 -58 -9 0 -13 6 -10
14 8 20 -26 49 -40 35 -9 -9 -8 -18 3 -34 10 -15 11 -25 5 -29 -5 -4 -15 3
-21 14 -9 17 -14 18 -30 8 -23 -15 -9 -48 20 -48 24 0 26 -18 3 -27 -11 -4
-25 4 -44 28 -27 34 -35 54 -21 54 15 0 82 58 82 71 0 23 13 15 47 -28z m1483
7 c0 -5 -10 -10 -23 -10 -17 0 -23 -7 -25 -32 -3 -25 2 -35 23 -49 33 -21 61
-8 57 26 -3 28 22 21 26 -7 3 -23 -31 -53 -61 -53 -24 0 -77 53 -77 77 0 32
30 64 56 61 14 -2 24 -7 24 -13z m-100 -71 c0 -21 52 -84 69 -84 11 0 10 -5
-4 -20 -20 -23 -37 -26 -33 -7 4 17 -51 87 -68 87 -19 0 -18 10 4 26 23 18 32
17 32 -2z m-1286 -23 c18 -20 19 -53 1 -51 -5 0 -10 8 -10 16 0 19 -31 42 -41
31 -4 -4 0 -23 9 -43 27 -57 -2 -91 -54 -63 -25 13 -40 50 -27 66 14 17 27 7
21 -16 -3 -13 2 -23 15 -30 30 -16 37 3 17 45 -13 28 -14 38 -5 50 17 20 54
17 74 -5z m1192 -56 c1 -8 12 -30 24 -50 18 -30 24 -33 41 -24 11 5 17 14 14
20 -4 5 0 9 8 9 31 0 25 -28 -11 -48 -37 -20 -59 -24 -54 -9 3 10 -35 67 -57
85 -15 12 -14 15 3 28 21 15 29 12 32 -11z m-1097 -12 c20 -14 38 -28 40 -29
2 -2 0 -11 -3 -21 -7 -16 -9 -16 -25 5 l-17 24 -26 -39 c-14 -22 -27 -47 -29
-57 -4 -17 -6 -17 -29 3 -17 14 -20 21 -10 21 18 1 74 76 65 90 -3 5 -12 7
-20 3 -15 -5 -21 8 -8 20 11 12 25 8 62 -20z m1035 -19 c9 -3 16 -12 16 -20 0
-16 -16 -19 -25 -4 -4 7 -13 7 -26 0 -41 -23 -6 -110 39 -96 13 4 22 16 22 27
0 23 15 25 24 4 8 -21 -28 -55 -58 -55 -28 0 -76 51 -76 81 0 20 41 69 59 69
5 0 16 -3 25 -6z m-948 -29 c10 -8 13 -15 7 -15 -15 0 -65 -95 -56 -104 11
-10 -21 -6 -37 5 -12 8 -12 12 -2 16 16 6 57 83 54 101 -4 16 10 15 34 -3z
m64 -26 c12 -8 12 -12 2 -16 -15 -6 -56 -93 -48 -101 3 -2 17 -4 31 -4 14 0
25 -6 25 -14 0 -19 -24 -18 -63 2 -42 22 -42 21 -23 40 9 9 22 36 28 60 12 45
22 52 48 33z m733 -26 c-7 -3 -6 -22 3 -61 8 -31 14 -60 14 -64 0 -18 -27 -5
-62 29 -39 38 -50 30 -24 -19 12 -23 12 -27 -1 -32 -26 -10 -48 -7 -36 5 11
11 -2 85 -18 104 -14 14 -10 25 8 25 9 0 35 -17 56 -37 l40 -38 -7 35 c-4 19
-11 37 -16 38 -18 6 -10 21 13 24 24 4 48 -3 30 -9z m-573 -33 c50 -50 -10
-145 -75 -120 -67 26 -41 140 32 140 13 0 32 -9 43 -20z m335 -54 c0 -58 13
-83 39 -73 12 5 16 20 16 57 0 27 -4 50 -10 50 -5 0 -10 5 -10 10 0 6 12 10
28 10 27 0 27 0 24 -60 -3 -48 -8 -63 -25 -75 -48 -34 -75 -15 -91 63 -13 63
-13 62 24 71 3 0 5 -24 5 -53z m-143 -24 c9 -33 19 -66 23 -71 4 -7 -4 -11
-20 -11 -21 0 -26 4 -21 17 7 18 -9 33 -36 33 -11 0 -18 -8 -18 -20 0 -14 -7
-20 -21 -20 -11 0 -19 3 -17 8 30 66 72 132 81 129 7 -2 19 -31 29 -65z"/>
<path d="M2176 3185 c-12 -32 -7 -55 13 -55 18 0 19 3 9 33 -14 41 -14 41 -22
22z"/>
<path d="M1864 3192 c-7 -4 -8 -15 -3 -29 10 -27 18 -28 44 -9 35 25 -5 62
-41 38z"/>
<path d="M1908 3103 c-19 -5 -23 -29 -9 -52 15 -24 63 2 59 31 -3 23 -19 30
-50 21z"/>
<path d="M2446 3174 c-11 -28 -6 -43 14 -49 25 -8 50 10 50 35 0 30 -53 42
-64 14z"/>
<path d="M2732 3065 c-10 -22 -9 -25 13 -31 44 -11 64 25 26 46 -26 14 -26 14
-39 -15z"/>
<path d="M2693 2970 c-10 -28 -9 -31 13 -36 53 -13 77 32 29 54 -14 7 -27 12
-28 12 -2 0 -8 -14 -14 -30z"/>
<path d="M1492 3038 c-17 -17 -15 -32 6 -52 18 -15 20 -15 36 3 10 11 16 28
14 38 -4 22 -38 29 -56 11z"/>
<path d="M3165 2700 c-17 -19 -17 -21 0 -40 22 -24 38 -25 55 -5 10 12 9 20
-4 40 -20 30 -27 31 -51 5z"/>
<path d="M1031 2568 c-12 -33 6 -64 49 -83 43 -19 75 -14 91 16 8 16 7 26 -6
45 -31 47 -119 61 -134 22z"/>
<path d="M3317 1853 c-4 -3 -7 -19 -7 -33 0 -54 62 -69 68 -17 2 16 -2 35 -9
43 -12 15 -41 19 -52 7z"/>
<path d="M1965 1763 c-3 -14 -18 -36 -32 -49 l-26 -24 18 -45 17 -45 34 30
c43 37 59 37 139 0 35 -16 67 -30 70 -30 3 0 5 11 5 24 0 50 -72 106 -135 106
-16 0 -38 12 -55 29 l-29 28 -6 -24z"/>
<path d="M3488 1849 c-20 -11 -24 -59 -7 -76 29 -29 76 29 52 65 -13 21 -24
24 -45 11z"/>
<path d="M1886 738 c-22 -31 -20 -65 4 -78 39 -21 81 55 48 88 -18 18 -35 15
-52 -10z"/>
<path d="M2106 695 c-4 -11 -2 -22 6 -26 17 -11 20 -6 10 21 -8 21 -9 22 -16
5z"/>
</g>
</svg>
